<?xml version="1.0" encoding="UTF-8"?><svg id="Layer_1" xmlns="http://www.w3.org/2000/svg" viewBox="0 0 500 500"><defs><style>.cls-1{fill:#fff;}</style></defs><polygon class="cls-1" points="188.77 259.11 239.79 325.09 188.77 390.25 124.36 340.8 188.77 259.11"/><path class="cls-1" d="M158.92,98.2l27.45-36.13c10.17-12.57,25.14-20.42,40.85-20.42h45.56c7.85,0,15.71,1.57,22.74,5.54,7.03,3.14,13.32,8.6,18.03,14.89l28.28,36.88c21.99,29.03,21.99,69.05,0,97.33l-29.85,37.7-51.02-65.91,31.42-40.02s-.82,0-.82-.82c-5.54-3.14-11.74-4.71-18.03-4.71h-46.31c-6.28,0-12.57,2.32-18.03,5.54l31.42,40.02,73.76,94.18,61.27,78.47-63.59,49.45-153.13-194.65c-21.99-28.28-21.99-68.3,0-97.33h0ZM197.37,113.09c.82.82.82,1.57,1.57,2.39,1.57-1.57,3.89-2.39,6.28-3.14,7.03-3.14,14.89-5.46,22.74-5.46h45.56c7.85,0,15.71,1.57,22.74,5.46,1.57.82,3.89,2.39,5.54,3.14,5.54-7.85,8.6-18.85,6.28-28.28-.82-5.46-3.14-11-7.03-15.71-3.14-3.89-7.85-7.85-12.57-10.17-4.71-2.39-10.17-3.89-15.71-3.89h-45.56c-11,0-21.17,5.46-28.28,14.14-8.6,11.74-10.17,29.03-1.57,41.59v-.07Z"/><path class="cls-1" d="M96.63,467.9v-39.17h8.64v39.15h-8.64v.02ZM101.67,451.97v-8.04h22.81v8.04h-22.81ZM120.88,467.9v-39.17h8.64v39.15h-8.64v.02Z"/><path class="cls-1" d="M137.56,467.9v-39.17h8.76v39.15h-8.76v.02Z"/><path class="cls-1" d="M164.95,467.9l-14.31-39.15h9.24l7.96,23.41,1.3,4.2h.19l1.28-4.15,7.94-23.46h9.07l-14.77,39.15h-7.94.02Z"/><path class="cls-1" d="M222.34,468.84c-5.91,0-10.79-1.93-14.67-5.82s-5.82-8.81-5.82-14.77,1.93-10.88,5.82-14.72c3.89-3.84,8.76-5.74,14.65-5.74s3.57.24,5.29.7c1.71.48,3.31,1.13,4.78,1.98,1.45.84,3.02,2.1,4.71,3.79l-5.79,6.01c-1.13-1.21-2.1-2.05-2.92-2.56-.82-.51-1.71-.89-2.73-1.16s-2.1-.41-3.26-.41c-3.38,0-6.23,1.11-8.47,3.35-2.27,2.24-3.38,5.16-3.38,8.76s1.11,6.52,3.35,8.81c2.24,2.27,5.07,3.43,8.47,3.43s2.37-.17,3.45-.51c1.11-.34,2.12-.82,3.09-1.42.97-.63,1.98-1.54,3.04-2.8l5.94,6.01c-1.76,1.93-3.43,3.35-4.97,4.25-1.54.89-3.21,1.59-5,2.1s-3.67.75-5.6.75l.02-.02Z"/><path class="cls-1" d="M250.46,468.84c-3.07,0-5.5-.84-7.36-2.51-1.83-1.67-2.75-3.86-2.75-6.56s1.11-5.19,3.33-6.85,5.12-2.51,8.69-2.51,2.75.14,4.03.41c1.25.27,2.34.63,3.26,1.04v-1.64c0-1.59-.56-2.87-1.64-3.79s-2.61-1.38-4.51-1.38-2.15.12-2.94.36c-.8.24-1.57.56-2.32.97s-1.69,1.11-2.8,2.08l-4.18-4.51c1.98-1.52,3.52-2.61,4.68-3.21,1.16-.6,2.44-1.06,3.86-1.4,1.42-.34,2.97-.48,4.63-.48,4.27,0,7.6.99,9.92,2.97,2.34,1.98,3.5,4.8,3.5,8.5v17.62h-8.18v-5.94l1.91,2.51h-2.1c-.8,1.25-2,2.29-3.6,3.14-1.59.82-3.4,1.25-5.43,1.25v-.05ZM253.07,463.32c1.93,0,3.52-.68,4.75-2.05s1.83-3.21,1.83-5.53c-.7-.39-1.54-.7-2.49-.94s-1.95-.36-3.04-.36c-1.76,0-3.19.39-4.27,1.16-1.11.77-1.67,1.93-1.67,3.48s.43,2.39,1.35,3.14c.89.75,2.08,1.11,3.52,1.11h0Z"/><path class="cls-1" d="M274.16,467.9v-28.12h8.18v5.38l-.84-1.09h1.04c.53-1.54,1.52-2.82,2.97-3.79s2.99-1.47,4.66-1.47,1.04.05,1.57.14c.53.1,1.23.29,2.12.6v7.94c-1.16-.43-2.1-.72-2.78-.89-.68-.14-1.33-.24-1.95-.24-1.91,0-3.43.68-4.61,2-1.18,1.35-1.79,3.07-1.79,5.19v14.34h-8.57Z"/><path class="cls-1" d="M310.12,468.84c-4.49,0-8.08-1.42-10.79-4.25-2.7-2.82-4.05-6.42-4.05-10.76s1.38-7.92,4.1-10.76c2.73-2.82,6.27-4.25,10.64-4.25s7.46,1.28,10.11,3.84c2.65,2.56,3.98,5.84,3.98,9.85v2.94h-24.71v-4.27h16.85c-.12-1.71-.75-3.11-1.83-4.18-1.11-1.06-2.56-1.59-4.39-1.59s-3.6.72-4.8,2.15c-1.18,1.42-1.79,3.4-1.79,5.94s.7,4.92,2.1,6.52c1.4,1.59,3.28,2.39,5.6,2.39s1.95-.14,2.78-.43,1.54-.68,2.2-1.16,1.4-1.23,2.24-2.29l5,3.89c-1.3,1.74-2.58,3.02-3.79,3.86-1.23.84-2.56,1.47-4.01,1.91s-3.26.65-5.41.65l-.02.02Z"/><path class="cls-1" d="M341.73,467.9v-39.17h15.35c4.13,0,7.46,1.21,10.04,3.64,2.58,2.41,3.86,5.74,3.86,9.99s-1.35,7.43-4.05,9.8c-2.7,2.37-6.01,3.55-9.94,3.55h-10.5v-7.34h9.82c1.79,0,3.23-.53,4.34-1.62s1.67-2.51,1.67-4.27-.56-3.26-1.64-4.39-2.51-1.71-4.25-1.71h-6.08v31.52h-8.64.02Z"/><path class="cls-1" d="M375.64,467.9v-39.17h8.45v15.16h.19c.8-1.52,2-2.75,3.64-3.67,1.62-.92,3.4-1.38,5.33-1.38,3.11,0,5.57.97,7.39,2.87,1.81,1.91,2.73,4.46,2.73,7.63v18.56h-8.57v-16.6c0-1.76-.43-3.14-1.3-4.1s-2.1-1.45-3.67-1.45-2.92.63-4.01,1.91c-1.09,1.28-1.62,2.8-1.62,4.59v15.66h-8.57Z"/></svg>