<?xml version="1.0" encoding="UTF-8"?>
<svg id="Layer_1" xmlns="http://www.w3.org/2000/svg" version="1.1" viewBox="0 0 421.6 151.7">
  <defs>
    <style>
      .st0 {
        fill: #f2c91d;
      }

      .st1 {
        fill: #0032a0;
      }

      .text-dark {
        fill: #1a1a2e;
      }
    </style>
  </defs>
  <!-- Text: Better Cainta -->
  <text x="198" y="56" font-family="'Helvetica Neue', Helvetica, Arial, sans-serif" font-weight="700" font-size="54" letter-spacing="-1" class="text-dark">Better</text>
  <text x="198" y="116" font-family="'Helvetica Neue', Helvetica, Arial, sans-serif" font-weight="700" font-size="54" letter-spacing="-1" class="st1">Cainta</text>
  <text x="364" y="139" font-family="'Helvetica Neue', Helvetica, Arial, sans-serif" font-weight="400" font-size="16" class="text-dark">.org</text>
  <!-- Emblem -->
  <g>
    <path class="st0" d="M14.3,29.6l-.4-6.8c0-.9.7-1.7,1.6-1.6l7.6.5c.4,0,.8.2,1.1.6l17.4,21.8c0,0,.2-.1.3-.2,0,0,0,0,.1-.1.2-.1.3-.2.5-.4,0,0,0,0,.1,0,.2-.1.4-.3.6-.4.1-.1.3-.2.4-.3l-13-18.6c-.8-1.1.1-2.6,1.4-2.4l1.9.2c.5,0,.9.3,1.2.8l10.9,18.5c.1,0,.2-.1.4-.2,0,0,0,0,.1,0,.2-.1.4-.2.6-.3.2-.1.4-.2.6-.3t0,0c0,0,.2,0,.2-.1,0,0,0,0,0,0,0,0,.1,0,.2,0,.1,0,.2-.1.3-.2.2,0,.3-.2.5-.2.2,0,.3-.1.5-.2,0,0,0,0,.1,0,.2,0,.4-.1.6-.2,0,0,.1,0,.2,0,.2,0,.4-.2.6-.2.2,0,.4-.2.6-.2,0,0,.1,0,.2,0,.2,0,.3-.1.5-.2,0,0,.1,0,.2,0,0,0,0,0,0,0,0,0,0,0,0,0l-5.2-20.9c-.1-.5,0-1,.3-1.4l1.2-1.5c.8-1,2.5-.6,2.7.7l3.7,22.3h0c.2,0,.5,0,.7-.1,0,0,0,0,0,0,.2,0,.5,0,.7-.1.2,0,.5,0,.7,0,0,0,.2,0,.2,0l-3.1-27.7c0-.4,0-.9.4-1.2l5.1-5.7c.6-.7,1.7-.7,2.3,0l5.1,5.7c.3.3.4.8.4,1.2l-3.1,27.7c.2,0,.3,0,.5,0,.2,0,.5,0,.7,0,.3,0,.5,0,.8.1,0,0,0,0,0,0,.2,0,.3,0,.5,0l3.9-22.3c.2-1.3,1.9-1.7,2.7-.7l1.2,1.5c.3.4.4.9.3,1.4l-5.4,20.8c.2,0,.3,0,.5.1,0,0,0,0,0,0,.2,0,.4.1.6.2,0,0,.1,0,.2,0,.2,0,.4.1.6.2.2,0,.4.2.6.2,0,0,.1,0,.2,0,.2,0,.4.1.5.2,0,0,0,0,.1,0,.2,0,.3.2.5.2.2,0,.3.2.5.2.2,0,.3.2.5.2.1,0,.2.1.4.2.2,0,.4.2.6.3.2.1.4.2.6.3,0,0,.2.1.3.2l11.1-18.4c.3-.4.7-.7,1.2-.8l2-.2c1.3-.1,2.2,1.4,1.4,2.5l-13.2,18.4h0c.2.1.4.3.6.4.2.1.4.3.6.4,0,0,0,0,.1,0,.2.1.3.2.5.4,0,0,0,0,.1.1,0,0,0,0,0,0t0,0l17.4-21.8c.3-.3.7-.6,1.1-.6l7.7-.4c.9,0,1.7.7,1.6,1.6l-.5,7.6c0,.4-.2.8-.6,1.1l-21.8,17.4c0,0,.1.2.2.3,0,0,0,0,.1.1.1.2.3.4.4.6.2.2.3.4.4.6,0,0,0,0,0,0,0,.1.2.3.3.4h0l18.6-13c1.1-.8,2.6.1,2.4,1.4l-.2,1.9c0,.5-.3.9-.8,1.2l-18.5,10.9c0,0,0,.2.1.2,0,0,0,.1.1.2.1.2.2.4.3.6,0,0,0,.2.1.2,0,.2.2.3.2.5,0,0,0,0,0,.1.1.2.2.4.3.6,0,.2.2.4.3.6,0,.1,0,.2.1.3,0,.2.2.4.2.5,0,0,0,0,0,0,0,.2.1.3.2.5,0,.2.1.4.2.6,0,.2.2.5.2.7,0,.2.1.4.2.7,0,0,0,.1,0,.2,0,0,0,.1,0,.2l20.8-5.2c.5-.1,1,0,1.4.3l1.5,1.2c1,.9.6,2.5-.7,2.7l-22.3,3.7h0c0,.3,0,.5.1.8,0,0,0,0,0,0,0,.2,0,.5.1.7,0,.3,0,.5,0,.8,0,0,0,0,0,0l-8.4,1.4c0,0-.2,0-.3,0l-12.7-.2c-.2,0-.3,0-.5,0l-24.8-9c-.2,0-.3-.2-.5-.3L14.3,29.6Z"/>
    <path class="st0" d="M109.9,68.6c-.5-1.2-4.2-1-5.5-.4-.5.2-1.3.6-1.9.9-.9.4-1.9-.2-2.3-1.3l-.5-1.9c-.2-.5-.5-.9-.8-1.1l21.1-2.4c-.5.7-.7,1.5-.6,2.1,0,.8-.3,1.4-.9,1.8-.3.2-.5.4-.6.5-.2.4-1,0-1.3.6-.3.7-1.4,2.9-2.1,2-.7-.9-2.2-1-2.7-.2s-1.3.5-1.9-.7Z"/>
    <path class="st1" d="M180.4,104.2c-1.3,3.6-3.9,10.5-4.8,12.8-1.1,2.8-7.2,10.5-8.5,12.1-.2.2-.3.3-.6.5l-7.8,4c-.1,0-.3.2-.4.3l-3.7,3.4c0,0-.1.1-.2.1-.8.5-5.9,3.9-11.2,5.6-4.8,1.6-12.7,3.8-15,4.5-.5.1-.8.4-1,.8l-.6,1c-.4.8-1.4,1.1-2.2.8l-32.8-14.3c-.6-.3-1-.9-1-1.6v-1.9c0-.7-.5-1.3-1.1-1.6l-15.6-6.9-2.3-1-3.9-1.7-11.1-4.9-3.3-1.4-1.3-.6c-.2,0-.4-.2-.5-.3l-1.7-1.6-1.7-1.7c-.5-.5-.6-1.2-.4-1.8l.3-1c.2-.6,0-1.3-.3-1.7l-4.2-4.6-2.3-2.5-1.9-2-3.3-3.6-1.8-2c0,0-.1-.1-.2-.2-.3-.2-.6-.3-.9-.3l-3-.3-5.7-.5-20.3-2c-.8,0-1.5-.8-1.6-1.6v-.6s-.6-10.3-.6-10.3l-.3-5.4c0-.1,0-.2,0-.3l.8-7.5,2.7-25.7c.1-1.3,1.7-2,2.7-1.2l6.4,4.6,13,9.4,6,4.3,13.9,10.1c.2.1.3.2.5.3l24.4,7.5c.2,0,.3,0,.5,0h12.5c0,.1.2.1.3.1l12.2-1.8c.8-.1,1.6.4,1.9,1.2l.5,1.6c0,0,0,.1,0,.2.4.8,1.3,1.2,2.1.9.4-.2.9-.3,1.3-.5.2,0,.4-.2.6-.2,1.3-.5,4.9-.7,5.4.3.1.3.3.5.5.6.4.3.9.4,1.2.1,0,0,.1-.1.2-.2.5-.6,2-.6,2.7.2.6.8,1.7-1.1,2-1.6.3-.6,1.1-.2,1.3-.6,0-.1.3-.3.6-.5.5-.3.9-.9.9-1.5,0-.6.1-1.3.7-1.9,1.2-1.2,3.2-.8,3.5-1.4.3-.6-.5-2-.5-2.6,0-.3.5-.8.9-1.2.3-.2.5-.4.5-.4l14.4,4.7c.3.1.6.3.9.6l22.9,31.4c.3.5.9.7,1.4.7s.2,0,.3,0c.4,0,.8-.3,1.1-.7.5-.6,1.2-.8,1.9-.6.1,0,.3.1.4.2l3.1,2c.2.2.5.3.9.3h.2s7.5.4,7.5.4c.5,0,.9.2,1.2.5.4.5.6,1.1.4,1.8Z"/>
  </g>
</svg>
